<?xml version="1.0" encoding="iso-8859-1"?>
<!-- Generator: Adobe Illustrator 18.0.0, SVG Export Plug-In . SVG Version: 6.00 Build 0)  -->
<!DOCTYPE svg PUBLIC "-//W3C//DTD SVG 1.1//EN" "http://www.w3.org/Graphics/SVG/1.1/DTD/svg11.dtd">
<svg version="1.1" id="Capa_1" xmlns="http://www.w3.org/2000/svg" xmlns:xlink="http://www.w3.org/1999/xlink" x="0px" y="0px"
	 viewBox="0 0 396.36 396.36" style="enable-background:new 0 0 396.36 396.36;" xml:space="preserve">
<g id="XMLID_43_">
	<g>
		<path style="fill:#B3B3B3;" d="M376.323,324.939l3.6,41.35l-5.94-3.26c-2.09-1.15-4.6-1.23-6.76-0.23l-18.36,8.54l-18.37-8.54
			c-2.01-0.93-4.32-0.93-6.32,0l-18.36,8.54l-18.36-8.54c-2.01-0.93-4.32-0.93-6.32,0l-18.37,8.54l-18.36-8.54
			c-2.01-0.93-4.32-0.93-6.32,0l-18.36,8.54l-18.36-8.54c-2.01-0.93-4.32-0.93-6.32,0l-18.36,8.54l-18.37-8.54
			c-2.01-0.93-4.32-0.93-6.32,0l-18.36,8.54l-18.37-8.54c-2.01-0.93-4.32-0.93-6.32,0l-18.36,8.54l-18.37-8.54
			c-2.01-0.93-4.32-0.93-6.32,0l-18.37,8.54l-18.37-8.54c-1.01-0.46-2.09-0.69-3.16-0.69c-1.25,0-2.49,0.3-3.61,0.92l-5.95,3.26
			l3.59-41.35H376.323z"/>
		<path style="fill:#C6862A;" d="M103.273,309.939h-71.74v-71.72c19.72,1.88,38.21,11.07,51.61,25.9
			C94.673,276.899,101.673,292.939,103.273,309.939z"/>
		<polygon style="fill:#C6862A;" points="158.133,93.909 163.753,109.099 145.713,109.099 143.183,93.909 		"/>
		<polygon style="fill:#C6862A;" points="169.313,124.099 175.803,141.599 151.123,141.599 148.213,124.099 		"/>
		<path style="fill:#C6862A;" d="M187.903,174.109h-31.36l-2.92-17.51h27.74C181.363,156.599,187.593,173.379,187.903,174.109z"/>
		<path style="fill:#4D4D4D;" d="M396.083,378.959c0.24,2.75-1.06,5.42-3.38,6.93c-2.31,1.51-5.27,1.62-7.7,0.29l-14.9-8.17
			l-18.08,8.4c-1.01,0.46-2.08,0.7-3.16,0.7c-1.08,0-2.16-0.24-3.16-0.7l-18.37-8.53l-18.36,8.53c-2.01,0.93-4.32,0.93-6.32,0
			l-18.36-8.53l-18.37,8.53c-2.01,0.93-4.32,0.93-6.32,0l-18.36-8.53l-18.36,8.53c-2.01,0.93-4.32,0.93-6.32,0l-18.36-8.53
			l-18.36,8.53c-2.01,0.93-4.32,0.93-6.32,0l-18.37-8.53l-18.36,8.53c-2.01,0.93-4.32,0.93-6.32,0l-18.37-8.53l-18.36,8.53
			c-2.01,0.93-4.32,0.93-6.32,0l-18.37-8.53l-18.37,8.53c-2.01,0.93-4.32,0.93-6.32,0l-18.09-8.4l-14.92,8.17
			c-2.42,1.33-5.38,1.22-7.7-0.29s-3.61-4.18-3.37-6.93l5.4-62.17c0.33-3.88,3.58-6.85,7.47-6.85h3.38V86.409
			c0-4.14,3.36-7.5,7.5-7.5h77.25v-7.59c0-34.22,27.84-62.06,62.07-62.06c4.14,0,7.5,3.35,7.5,7.5v68.31l30.24,81.61
			c5.9,15.92,19.97,27.46,36.73,30.12l84.61,13.42c33.25,5.27,57.39,33.54,57.39,67.2v32.52h3.38c3.89,0,7.13,2.97,7.47,6.85
			L396.083,378.959z M379.923,366.289l-3.6-41.35h-356.3l-3.59,41.35l5.95-3.26c1.12-0.62,2.36-0.92,3.61-0.92
			c1.07,0,2.15,0.23,3.16,0.69l18.37,8.54l18.37-8.54c2-0.93,4.31-0.93,6.32,0l18.37,8.54l18.36-8.54c2-0.93,4.31-0.93,6.32,0
			l18.37,8.54l18.36-8.54c2-0.93,4.31-0.93,6.32,0l18.37,8.54l18.36-8.54c2-0.93,4.31-0.93,6.32,0l18.36,8.54l18.36-8.54
			c2-0.93,4.31-0.93,6.32,0l18.36,8.54l18.37-8.54c2-0.93,4.31-0.93,6.32,0l18.36,8.54l18.36-8.54c2-0.93,4.31-0.93,6.32,0
			l18.37,8.54l18.36-8.54c2.16-1,4.67-0.92,6.76,0.23L379.923,366.289z M364.823,309.939v-32.52c0-26.24-18.82-48.28-44.74-52.39
			l-75.94-12.04v4.88c0,26.87-21.85,48.73-48.72,48.73h-91.63c8.3,13.01,13.3,27.86,14.52,43.34H364.823z M229.143,217.869v-7.61
			c-1.8-0.48-3.58-1.05-5.32-1.69c-6.67,14.86-21.4,24.65-38.29,24.65c-19.9,0-36.72-14.24-39.99-33.87l-1.7-10.24h-21.13
			c-4.14,0-7.5-3.36-7.5-7.5s3.36-7.5,7.5-7.5h18.63l-2.92-17.51h-23.83c-4.14,0-7.5-3.36-7.5-7.5s3.36-7.5,7.5-7.5h21.33
			l-2.92-17.5h-26.54c-4.14,0-7.5-3.36-7.5-7.5c0-4.15,3.36-7.5,7.5-7.5h24.04l-2.53-15.19h-96.44v129.23
			c22.84,1.83,44.38,11.94,60.41,28.46h103.48C214.013,251.599,229.143,236.469,229.143,217.869z M185.533,218.219
			c11.11,0,20.76-6.59,24.91-16.51c-5.15-3.49-9.75-7.73-13.66-12.6h-37.74l1.3,7.78
			C162.403,209.249,172.993,218.219,185.533,218.219z M156.543,174.109h31.36c-0.31-0.73-6.54-17.51-6.54-17.51h-27.74
			L156.543,174.109z M175.803,141.599l-6.49-17.5h-21.1l2.91,17.5H175.803z M163.753,109.099l-5.62-15.19h-14.95l2.53,15.19H163.753
			z M155.853,78.909v-54.06c-22.4,3.6-39.57,23.07-39.57,46.47v7.59H155.853z M31.533,309.939h71.74c-1.6-17-8.6-33.04-20.13-45.82
			c-13.4-14.83-31.89-24.02-51.61-25.9V309.939z"/>
		<path style="fill:#E29E30;" d="M364.823,277.419v32.52h-246.51c-1.22-15.48-6.22-30.33-14.52-43.34h91.63
			c26.87,0,48.72-21.86,48.72-48.73v-4.88l75.94,12.04C346.003,229.139,364.823,251.179,364.823,277.419z"/>
		<path style="fill:#E29E30;" d="M229.143,210.259v7.61c0,18.6-15.13,33.73-33.72,33.73H91.943
			c-16.03-16.52-37.57-26.63-60.41-28.46V93.909h96.44l2.53,15.19h-24.04c-4.14,0-7.5,3.35-7.5,7.5c0,4.14,3.36,7.5,7.5,7.5h26.54
			l2.92,17.5h-21.33c-4.14,0-7.5,3.36-7.5,7.5s3.36,7.5,7.5,7.5h23.83l2.92,17.51h-18.63c-4.14,0-7.5,3.36-7.5,7.5s3.36,7.5,7.5,7.5
			h21.13l1.7,10.24c3.27,19.63,20.09,33.87,39.99,33.87c16.89,0,31.62-9.79,38.29-24.65
			C225.563,209.209,227.343,209.779,229.143,210.259z"/>
		<path style="fill:#C6862A;" d="M210.443,201.709c-4.15,9.92-13.8,16.51-24.91,16.51c-12.54,0-23.13-8.97-25.19-21.33l-1.3-7.78
			h37.74C200.693,193.979,205.293,198.219,210.443,201.709z"/>
		<path style="fill:#C6862A;" d="M155.853,24.849v54.06h-39.57v-7.59C116.283,47.919,133.453,28.449,155.853,24.849z"/>
	</g>
	<g>
	</g>
</g>
<g>
</g>
<g>
</g>
<g>
</g>
<g>
</g>
<g>
</g>
<g>
</g>
<g>
</g>
<g>
</g>
<g>
</g>
<g>
</g>
<g>
</g>
<g>
</g>
<g>
</g>
<g>
</g>
<g>
</g>
</svg>
